<?xml version="1.0" encoding="iso-8859-1"?>
<!-- Generator: Adobe Illustrator 19.1.0, SVG Export Plug-In . SVG Version: 6.00 Build 0)  -->
<svg version="1.1" id="Capa_1" xmlns="http://www.w3.org/2000/svg" xmlns:xlink="http://www.w3.org/1999/xlink" x="0px" y="0px"
	 viewBox="0 0 512 512" style="enable-background:new 0 0 512 512;" xml:space="preserve">
<g>
	<g>
		<polygon style="fill:#FFE1B2;" points="216,296 312,144 312,488 216,488 		"/>
	</g>
	<g>
		<polygon style="fill:#FFE1B2;" points="408,104 504,8 504,488 408,488 		"/>
	</g>
	<g>
		<polygon style="fill:#FFE1B2;" points="24,392 120,328 120,488 24,488 		"/>
	</g>
	<g>
		<path style="fill:#FF4F19;" d="M504,0h-64c-4.422,0-8,3.578-8,8s3.578,8,8,8h44.687l-81.226,81.226l-94.54,39.392
			c-0.271,0.113-0.448,0.334-0.7,0.472c-0.464,0.251-0.885,0.531-1.297,0.875c-0.427,0.359-0.789,0.741-1.126,1.174
			c-0.172,0.217-0.412,0.349-0.564,0.587l-88.731,140.491l-41.479-76.046c-0.177-0.324-0.47-0.523-0.683-0.812
			c-0.335-0.461-0.654-0.91-1.087-1.294c-0.415-0.366-0.877-0.615-1.351-0.884c-0.327-0.188-0.573-0.467-0.934-0.611
			c-0.126-0.051-0.259-0.027-0.386-0.072c-0.499-0.172-1.008-0.212-1.531-0.284c-0.523-0.071-1.03-0.179-1.547-0.146
			c-0.447,0.027-0.87,0.179-1.313,0.283c-0.578,0.138-1.14,0.257-1.672,0.518c-0.112,0.055-0.236,0.047-0.347,0.107
			c-0.318,0.173-0.513,0.462-0.798,0.67c-0.465,0.338-0.919,0.658-1.306,1.096c-0.375,0.423-0.629,0.896-0.902,1.38
			c-0.182,0.319-0.456,0.558-0.595,0.909l-47.077,117.692l-93.931,62.621c-3.68,2.453-4.672,7.414-2.219,11.094
			c1.539,2.312,4.078,3.562,6.664,3.562c1.523,0,3.062-0.438,4.43-1.344l95.99-63.993c0.789-0.522,1.444-1.227,2.014-2.016
			c0.185-0.255,0.316-0.521,0.467-0.793c0.168-0.301,0.39-0.556,0.521-0.885l41.687-104.217l39.86,73.077
			c0.087,0.159,0.218,0.274,0.314,0.425c0.141,0.223,0.3,0.418,0.464,0.627c0.503,0.644,1.073,1.198,1.723,1.646
			c0.098,0.068,0.148,0.175,0.25,0.239c0.043,0.027,0.091,0.034,0.135,0.06c0.423,0.255,0.88,0.426,1.34,0.599
			c0.228,0.086,0.443,0.218,0.675,0.281c0.583,0.161,1.188,0.224,1.797,0.25c0.107,0.004,0.212,0.044,0.319,0.044l0.008-0.001
			l0.007,0.001c0.821,0,1.638-0.175,2.442-0.436c0.468-0.151,0.938-0.303,1.373-0.539c0,0,0.004-0.001,0.006-0.002
			c0,0,0.009-0.009,0.015-0.012c0.81-0.442,1.511-1.076,2.141-1.797c0.147-0.168,0.288-0.326,0.419-0.505
			c0.113-0.154,0.258-0.271,0.362-0.436l94.652-149.865l93.58-38.992c0.008-0.003,0.016-0.006,0.024-0.01l0.057-0.024
			c0.522-0.217,0.9-0.602,1.349-0.91c0.409-0.279,0.867-0.454,1.229-0.817l0.04-0.04c0.008-0.008,0.016-0.016,0.024-0.024
			L496,27.312V72c0,4.422,3.578,8,8,8s8-3.578,8-8V8C512,3.578,508.422,0,504,0z"/>
	</g>
	<g>
		<g>
			<g>
				<path style="fill:#5C546A;" d="M24,512c-4.422,0-8-3.578-8-8v-16c0-4.422,3.578-8,8-8s8,3.578,8,8v16
					C32,508.422,28.422,512,24,512z"/>
			</g>
		</g>
		<g>
			<g>
				<path style="fill:#5C546A;" d="M120,512c-4.422,0-8-3.578-8-8v-16c0-4.422,3.578-8,8-8c4.422,0,8,3.578,8,8v16
					C128,508.422,124.422,512,120,512z"/>
			</g>
		</g>
		<g>
			<g>
				<path style="fill:#5C546A;" d="M216,512c-4.422,0-8-3.578-8-8v-16c0-4.422,3.578-8,8-8s8,3.578,8,8v16
					C224,508.422,220.422,512,216,512z"/>
			</g>
		</g>
		<g>
			<g>
				<path style="fill:#5C546A;" d="M312,512c-4.422,0-8-3.578-8-8v-16c0-4.422,3.578-8,8-8s8,3.578,8,8v16
					C320,508.422,316.422,512,312,512z"/>
			</g>
		</g>
		<g>
			<g>
				<path style="fill:#5C546A;" d="M408,512c-4.422,0-8-3.578-8-8v-16c0-4.422,3.578-8,8-8c4.422,0,8,3.578,8,8v16
					C416,508.422,412.422,512,408,512z"/>
			</g>
		</g>
		<g>
			<g>
				<path style="fill:#5C546A;" d="M24,112H8c-4.422,0-8-3.578-8-8c0-4.422,3.578-8,8-8h16c4.422,0,8,3.578,8,8
					C32,108.422,28.422,112,24,112z"/>
			</g>
		</g>
		<g>
			<g>
				<path style="fill:#5C546A;" d="M24,208H8c-4.422,0-8-3.578-8-8c0-4.422,3.578-8,8-8h16c4.422,0,8,3.578,8,8
					C32,204.422,28.422,208,24,208z"/>
			</g>
		</g>
		<g>
			<g>
				<path style="fill:#5C546A;" d="M24,304H8c-4.422,0-8-3.578-8-8s3.578-8,8-8h16c4.422,0,8,3.578,8,8S28.422,304,24,304z"/>
			</g>
		</g>
		<g>
			<g>
				<path style="fill:#5C546A;" d="M24,400H8c-4.422,0-8-3.578-8-8s3.578-8,8-8h16c4.422,0,8,3.578,8,8S28.422,400,24,400z"/>
			</g>
		</g>
		<g>
			<g>
				<path style="fill:#5C546A;" d="M24,496H8c-4.422,0-8-3.578-8-8s3.578-8,8-8h16c4.422,0,8,3.578,8,8S28.422,496,24,496z"/>
			</g>
		</g>
		<g>
			<g>
				<path style="fill:#5C546A;" d="M504,496H24c-4.422,0-8-3.578-8-8V8c0-4.422,3.578-8,8-8s8,3.578,8,8v472h472
					c4.422,0,8,3.578,8,8S508.422,496,504,496z"/>
			</g>
		</g>
	</g>
	<g>
		<g>
			<g>
				<path style="fill:#FF4F19;" d="M312,336c-2.078,0-4.164-0.883-5.68-2.32c-1.445-1.523-2.32-3.523-2.32-5.68
					c0-2.164,0.875-4.242,2.32-5.68c2.961-2.961,8.32-2.961,11.359,0c1.438,1.516,2.32,3.516,2.32,5.68
					c0,2.078-0.883,4.156-2.32,5.68C316.156,335.117,314.078,336,312,336z"/>
			</g>
		</g>
		<g>
			<g>
				<path style="fill:#FF4F19;" d="M312,304c-2.078,0-4.164-0.883-5.68-2.32c-1.445-1.523-2.32-3.523-2.32-5.68
					c0-2.164,0.875-4.164,2.32-5.68c3.039-2.961,8.32-2.961,11.359,0c1.438,1.516,2.32,3.516,2.32,5.68
					c0,2.156-0.883,4.156-2.32,5.68C316.156,303.117,314.078,304,312,304z"/>
			</g>
		</g>
		<g>
			<g>
				<path style="fill:#FF4F19;" d="M312,272c-2.078,0-4.164-0.883-5.68-2.32c-1.445-1.523-2.32-3.523-2.32-5.68
					c0-2.164,0.875-4.164,2.32-5.68c3.039-2.961,8.32-2.961,11.359,0c1.438,1.516,2.32,3.602,2.32,5.68
					c0,2.156-0.883,4.156-2.32,5.68C316.156,271.117,314.078,272,312,272z"/>
			</g>
		</g>
		<g>
			<g>
				<path style="fill:#FF4F19;" d="M312,240c-2.078,0-4.164-0.883-5.68-2.32c-1.445-1.523-2.32-3.523-2.32-5.68
					c0-2.164,0.875-4.164,2.32-5.68c3.039-2.961,8.32-2.961,11.359,0c1.438,1.516,2.32,3.602,2.32,5.68
					c0,2.156-0.883,4.156-2.32,5.68C316.156,239.117,314.078,240,312,240z"/>
			</g>
		</g>
		<g>
			<g>
				<path style="fill:#FF4F19;" d="M312,208c-2.078,0-4.164-0.883-5.68-2.32c-1.445-1.523-2.32-3.523-2.32-5.68
					c0-2.164,0.875-4.164,2.32-5.68c2.961-2.961,8.398-2.961,11.359,0c1.438,1.516,2.32,3.602,2.32,5.68
					c0,2.078-0.883,4.156-2.32,5.68C316.156,207.117,314.078,208,312,208z"/>
			</g>
		</g>
		<g>
			<g>
				<path style="fill:#FF4F19;" d="M312,464c-2.078,0-4.164-0.883-5.68-2.32c-1.445-1.523-2.32-3.523-2.32-5.68
					c0-2.164,0.875-4.164,2.32-5.68c2.961-2.961,8.398-2.961,11.359,0c1.438,1.516,2.32,3.602,2.32,5.68s-0.883,4.156-2.32,5.68
					C316.156,463.117,314.078,464,312,464z"/>
			</g>
		</g>
		<g>
			<g>
				<path style="fill:#FF4F19;" d="M312,432c-2.078,0-4.164-0.805-5.68-2.32c-1.445-1.523-2.32-3.523-2.32-5.68
					c0-2.164,0.875-4.242,2.32-5.68c2.961-2.961,8.398-2.961,11.359,0c1.438,1.516,2.32,3.516,2.32,5.68
					c0,2.078-0.883,4.156-2.32,5.68C316.156,431.195,314.078,432,312,432z"/>
			</g>
		</g>
		<g>
			<g>
				<path style="fill:#FF4F19;" d="M312,400c-2.078,0-4.164-0.883-5.68-2.32c-1.445-1.523-2.32-3.602-2.32-5.68
					c0-2.164,0.875-4.242,2.32-5.68c2.961-2.961,8.398-2.961,11.359,0c1.438,1.516,2.32,3.516,2.32,5.68
					c0,2.078-0.883,4.156-2.32,5.68C316.156,399.117,314.078,400,312,400z"/>
			</g>
		</g>
		<g>
			<g>
				<path style="fill:#FF4F19;" d="M312,368c-2.078,0-4.164-0.883-5.68-2.32c-1.445-1.523-2.32-3.602-2.32-5.68
					c0-2.164,0.875-4.242,2.32-5.68c2.961-2.961,8.32-2.961,11.359,0c1.438,1.516,2.32,3.516,2.32,5.68
					c0,2.078-0.883,4.156-2.32,5.68C316.156,367.117,314.078,368,312,368z"/>
			</g>
		</g>
	</g>
	<g>
		<g>
			<g>
				<path style="fill:#E9001E;" d="M408,336c-2.164,0-4.164-0.883-5.68-2.32c-1.445-1.523-2.32-3.523-2.32-5.68
					c0-2.164,0.875-4.242,2.32-5.68c2.875-2.883,8.398-2.961,11.359,0c1.438,1.516,2.32,3.516,2.32,5.68
					c0,2.156-0.883,4.156-2.32,5.68C412.156,335.117,410.156,336,408,336z"/>
			</g>
		</g>
		<g>
			<g>
				<path style="fill:#E9001E;" d="M408,304c-2.078,0-4.164-0.883-5.68-2.32c-1.445-1.523-2.32-3.602-2.32-5.68
					s0.875-4.164,2.32-5.68c2.961-2.961,8.398-2.961,11.359,0c1.438,1.516,2.32,3.602,2.32,5.68s-0.883,4.156-2.32,5.68
					C412.156,303.117,410.078,304,408,304z"/>
			</g>
		</g>
		<g>
			<g>
				<path style="fill:#E9001E;" d="M408,272c-2.164,0-4.164-0.883-5.68-2.32c-1.445-1.523-2.32-3.523-2.32-5.68
					c0-2.164,0.875-4.164,2.32-5.68c2.961-2.961,8.398-2.961,11.359,0c1.438,1.516,2.32,3.516,2.32,5.68
					c0,2.156-0.883,4.156-2.32,5.68C412.156,271.117,410.156,272,408,272z"/>
			</g>
		</g>
		<g>
			<g>
				<path style="fill:#E9001E;" d="M408,240c-2.078,0-4.164-0.883-5.68-2.32c-1.445-1.523-2.32-3.602-2.32-5.68
					c0-2.078,0.875-4.164,2.32-5.68c2.961-2.961,8.398-2.961,11.359,0c1.438,1.516,2.32,3.602,2.32,5.68
					c0,2.078-0.883,4.156-2.32,5.68C412.156,239.117,410.078,240,408,240z"/>
			</g>
		</g>
		<g>
			<g>
				<path style="fill:#E9001E;" d="M408,208c-2.164,0-4.164-0.883-5.68-2.32c-1.445-1.523-2.32-3.523-2.32-5.68
					c0-2.164,0.875-4.164,2.32-5.68c2.961-2.961,8.398-2.961,11.359,0c1.438,1.516,2.32,3.516,2.32,5.68
					c0,2.156-0.883,4.156-2.32,5.68C412.156,207.117,410.156,208,408,208z"/>
			</g>
		</g>
		<g>
			<g>
				<path style="fill:#E9001E;" d="M408,176c-2.078,0-4.164-0.883-5.68-2.32c-1.445-1.523-2.32-3.602-2.32-5.68
					s0.875-4.164,2.32-5.68c2.961-2.961,8.398-2.961,11.359,0c1.438,1.516,2.32,3.602,2.32,5.68s-0.883,4.156-2.32,5.68
					C412.156,175.117,410.078,176,408,176z"/>
			</g>
		</g>
		<g>
			<g>
				<path style="fill:#E9001E;" d="M408,144c-2.078,0-4.164-0.883-5.68-2.32c-1.445-1.523-2.32-3.602-2.32-5.68
					c0-2.164,0.875-4.164,2.32-5.68c2.961-2.961,8.398-2.961,11.359,0c1.438,1.516,2.32,3.516,2.32,5.68
					c0,2.078-0.883,4.156-2.32,5.68C412.156,143.117,410.078,144,408,144z"/>
			</g>
		</g>
		<g>
			<g>
				<path style="fill:#E9001E;" d="M408,464c-2.164,0-4.164-0.883-5.68-2.398c-1.445-1.445-2.32-3.445-2.32-5.602
					c0-2.078,0.875-4.164,2.32-5.68c2.961-2.961,8.398-2.961,11.359,0c1.438,1.516,2.32,3.602,2.32,5.68
					c0,2.156-0.883,4.156-2.398,5.68C412.156,463.117,410.156,464,408,464z"/>
			</g>
		</g>
		<g>
			<g>
				<path style="fill:#E9001E;" d="M408,432c-2.078,0-4.164-0.883-5.68-2.32c-1.445-1.523-2.32-3.602-2.32-5.68
					c0-2.164,0.875-4.164,2.32-5.68c2.961-2.961,8.398-2.961,11.359,0c1.438,1.516,2.32,3.516,2.32,5.68
					c0,2.078-0.883,4.156-2.32,5.68C412.156,431.117,410.078,432,408,432z"/>
			</g>
		</g>
		<g>
			<g>
				<path style="fill:#E9001E;" d="M408,400c-2.164,0-4.164-0.883-5.68-2.32c-1.445-1.523-2.32-3.523-2.32-5.68
					c0-2.164,0.875-4.164,2.32-5.68c2.961-2.961,8.398-2.961,11.359,0c1.438,1.516,2.32,3.602,2.32,5.68
					c0,2.156-0.883,4.156-2.32,5.68C412.156,399.117,410.156,400,408,400z"/>
			</g>
		</g>
		<g>
			<g>
				<path style="fill:#E9001E;" d="M408,368c-2.078,0-4.164-0.883-5.68-2.32c-1.445-1.523-2.32-3.602-2.32-5.68
					c0-2.164,0.875-4.242,2.32-5.68c2.961-2.961,8.398-2.961,11.359,0.078c1.438,1.438,2.32,3.438,2.32,5.602
					c0,2.078-0.883,4.156-2.32,5.68C412.156,367.117,410.078,368,408,368z"/>
			</g>
		</g>
	</g>
	<g>
		<g>
			<g>
				<path style="fill:#FF9600;" d="M216,336c-2.078,0-4.164-0.883-5.68-2.32c-1.445-1.523-2.32-3.602-2.32-5.68
					s0.875-4.164,2.32-5.68c2.961-2.961,8.398-2.961,11.359,0c1.438,1.516,2.32,3.602,2.32,5.68s-0.883,4.156-2.32,5.68
					C220.156,335.117,218.078,336,216,336z"/>
			</g>
		</g>
		<g>
			<g>
				<path style="fill:#FF9600;" d="M216,464c-2.078,0-4.164-0.883-5.68-2.32c-1.445-1.523-2.32-3.602-2.32-5.68
					c0-2.164,0.875-4.164,2.32-5.68c3.039-2.961,8.32-2.961,11.359,0c1.438,1.516,2.32,3.602,2.32,5.68s-0.883,4.156-2.32,5.68
					C220.156,463.117,218.078,464,216,464z"/>
			</g>
		</g>
		<g>
			<g>
				<path style="fill:#FF9600;" d="M216,432c-2.078,0-4.164-0.883-5.68-2.32c-1.445-1.523-2.32-3.602-2.32-5.68
					s0.875-4.164,2.32-5.68c3.039-2.961,8.32-2.961,11.359,0c1.438,1.516,2.32,3.602,2.32,5.68s-0.883,4.156-2.32,5.68
					C220.156,431.117,218.078,432,216,432z"/>
			</g>
		</g>
		<g>
			<g>
				<path style="fill:#FF9600;" d="M216,400c-2.078,0-4.164-0.883-5.68-2.32c-1.445-1.523-2.32-3.523-2.32-5.68
					c0-2.164,0.875-4.164,2.32-5.68c3.039-2.961,8.32-2.961,11.359,0c1.438,1.516,2.32,3.602,2.32,5.68s-0.883,4.156-2.32,5.68
					C220.156,399.117,218.078,400,216,400z"/>
			</g>
		</g>
		<g>
			<g>
				<path style="fill:#FF9600;" d="M216,368c-2.078,0-4.164-0.883-5.68-2.32c-1.445-1.523-2.32-3.602-2.32-5.68
					s0.875-4.164,2.32-5.68c2.961-2.961,8.398-2.961,11.359,0c1.438,1.516,2.32,3.602,2.32,5.68s-0.883,4.156-2.32,5.68
					C220.156,367.117,218.078,368,216,368z"/>
			</g>
		</g>
	</g>
	<g>
		<g>
			<g>
				<path style="fill:#FFD200;" d="M120,464c-2.078,0-4.164-0.883-5.68-2.32c-1.445-1.523-2.32-3.602-2.32-5.68
					c0-2.164,0.875-4.164,2.32-5.68c2.961-2.961,8.32-2.961,11.359,0c1.438,1.516,2.32,3.516,2.32,5.68
					c0,2.078-0.883,4.156-2.32,5.68C124.156,463.117,122.078,464,120,464z"/>
			</g>
		</g>
		<g>
			<g>
				<path style="fill:#FFD200;" d="M120,432c-2.078,0-4.164-0.883-5.68-2.32c-1.445-1.523-2.32-3.602-2.32-5.68
					s0.875-4.164,2.32-5.68c2.961-2.961,8.398-2.961,11.359,0c1.438,1.516,2.32,3.602,2.32,5.68c0,2.156-0.883,4.156-2.32,5.68
					C124.156,431.117,122.078,432,120,432z"/>
			</g>
		</g>
		<g>
			<g>
				<path style="fill:#FFD200;" d="M120,400c-2.078,0-4.164-0.883-5.68-2.32c-1.445-1.523-2.32-3.523-2.32-5.68
					c0-2.078,0.875-4.164,2.32-5.68c2.961-2.961,8.32-2.961,11.359,0c1.438,1.516,2.32,3.516,2.32,5.68
					c0,2.156-0.883,4.156-2.32,5.68C124.156,399.117,122.078,400,120,400z"/>
			</g>
		</g>
		<g>
			<g>
				<path style="fill:#FFD200;" d="M120,368c-2.078,0-4.164-0.883-5.68-2.32c-1.445-1.523-2.32-3.602-2.32-5.68
					c0-2.164,0.875-4.164,2.32-5.68c2.961-2.961,8.32-2.961,11.359,0c1.438,1.516,2.32,3.516,2.32,5.68
					c0,2.078-0.883,4.156-2.32,5.68C124.156,367.117,122.078,368,120,368z"/>
			</g>
		</g>
	</g>
</g>
<g>
</g>
<g>
</g>
<g>
</g>
<g>
</g>
<g>
</g>
<g>
</g>
<g>
</g>
<g>
</g>
<g>
</g>
<g>
</g>
<g>
</g>
<g>
</g>
<g>
</g>
<g>
</g>
<g>
</g>
</svg>
